<mxfile host="65bd71144e">
    <diagram id="X2-omXkpdXgqeyU7gA3L" name="第 1 页">
        <mxGraphModel dx="888" dy="512" grid="1" gridSize="10" guides="1" tooltips="1" connect="1" arrows="1" fold="1" page="1" pageScale="1" pageWidth="827" pageHeight="1169" math="0" shadow="0">
            <root>
                <mxCell id="0"/>
                <mxCell id="1" parent="0"/>
                <mxCell id="2" value="&#10;&#10;" style="swimlane;startSize=0;" parent="1" vertex="1">
                    <mxGeometry x="140" y="60" width="570" height="990" as="geometry">
                        <mxRectangle x="140" y="60" width="50" height="40" as="alternateBounds"/>
                    </mxGeometry>
                </mxCell>
                <mxCell id="3" value="登录" style="ellipse;whiteSpace=wrap;html=1;" parent="2" vertex="1">
                    <mxGeometry x="80" y="20" width="110" height="30" as="geometry"/>
                </mxCell>
                <mxCell id="20" style="edgeStyle=none;html=1;entryX=0;entryY=0.5;entryDx=0;entryDy=0;" parent="2" source="4" target="5" edge="1">
                    <mxGeometry relative="1" as="geometry"/>
                </mxCell>
                <mxCell id="26" value="&lt;font style=&quot;font-size: 11px;&quot;&gt;include&lt;br&gt;&lt;/font&gt;" style="edgeLabel;html=1;align=center;verticalAlign=middle;resizable=0;points=[];rotation=0;" parent="20" vertex="1" connectable="0">
                    <mxGeometry x="0.1643" y="1" relative="1" as="geometry">
                        <mxPoint x="-13" y="5" as="offset"/>
                    </mxGeometry>
                </mxCell>
                <mxCell id="21" style="edgeStyle=none;html=1;entryX=0;entryY=0.5;entryDx=0;entryDy=0;" parent="2" source="4" target="15" edge="1">
                    <mxGeometry relative="1" as="geometry"/>
                </mxCell>
                <mxCell id="27" value="include" style="edgeLabel;html=1;align=center;verticalAlign=middle;resizable=0;points=[];fontSize=11;" parent="21" vertex="1" connectable="0">
                    <mxGeometry x="0.161" y="2" relative="1" as="geometry">
                        <mxPoint as="offset"/>
                    </mxGeometry>
                </mxCell>
                <mxCell id="22" style="edgeStyle=none;html=1;entryX=0;entryY=0.5;entryDx=0;entryDy=0;" parent="2" source="4" target="16" edge="1">
                    <mxGeometry relative="1" as="geometry"/>
                </mxCell>
                <mxCell id="28" value="include" style="edgeLabel;html=1;align=center;verticalAlign=middle;resizable=0;points=[];fontSize=11;" parent="22" vertex="1" connectable="0">
                    <mxGeometry x="0.1102" y="-3" relative="1" as="geometry">
                        <mxPoint as="offset"/>
                    </mxGeometry>
                </mxCell>
                <mxCell id="23" style="edgeStyle=none;html=1;entryX=0;entryY=0.5;entryDx=0;entryDy=0;" parent="2" source="4" target="17" edge="1">
                    <mxGeometry relative="1" as="geometry"/>
                </mxCell>
                <mxCell id="29" value="include" style="edgeLabel;html=1;align=center;verticalAlign=middle;resizable=0;points=[];fontSize=11;" parent="23" vertex="1" connectable="0">
                    <mxGeometry x="0.1884" y="-1" relative="1" as="geometry">
                        <mxPoint as="offset"/>
                    </mxGeometry>
                </mxCell>
                <mxCell id="24" style="edgeStyle=none;html=1;entryX=0;entryY=0.5;entryDx=0;entryDy=0;" parent="2" source="4" target="18" edge="1">
                    <mxGeometry relative="1" as="geometry"/>
                </mxCell>
                <mxCell id="30" value="include" style="edgeLabel;html=1;align=center;verticalAlign=middle;resizable=0;points=[];fontSize=11;" parent="24" vertex="1" connectable="0">
                    <mxGeometry x="0.2435" relative="1" as="geometry">
                        <mxPoint as="offset"/>
                    </mxGeometry>
                </mxCell>
                <mxCell id="25" style="edgeStyle=none;html=1;entryX=0;entryY=0.5;entryDx=0;entryDy=0;" parent="2" source="4" target="19" edge="1">
                    <mxGeometry relative="1" as="geometry"/>
                </mxCell>
                <mxCell id="31" value="include" style="edgeLabel;html=1;align=center;verticalAlign=middle;resizable=0;points=[];fontSize=11;" parent="25" vertex="1" connectable="0">
                    <mxGeometry x="0.189" y="1" relative="1" as="geometry">
                        <mxPoint as="offset"/>
                    </mxGeometry>
                </mxCell>
                <mxCell id="4" value="培育记录管理" style="ellipse;whiteSpace=wrap;html=1;" parent="2" vertex="1">
                    <mxGeometry x="80" y="110" width="110" height="30" as="geometry"/>
                </mxCell>
                <mxCell id="5" value="操作死亡情况记录" style="ellipse;whiteSpace=wrap;html=1;" parent="2" vertex="1">
                    <mxGeometry x="440" y="10" width="110" height="30" as="geometry"/>
                </mxCell>
                <mxCell id="15" value="操作个体死亡情况记录" style="ellipse;whiteSpace=wrap;html=1;" parent="2" vertex="1">
                    <mxGeometry x="430" y="40" width="130" height="30" as="geometry"/>
                </mxCell>
                <mxCell id="16" value="操作投药情况记录" style="ellipse;whiteSpace=wrap;html=1;" parent="2" vertex="1">
                    <mxGeometry x="430" y="70" width="130" height="30" as="geometry"/>
                </mxCell>
                <mxCell id="17" value="操作产蛋量记录" style="ellipse;whiteSpace=wrap;html=1;" parent="2" vertex="1">
                    <mxGeometry x="430" y="110" width="130" height="30" as="geometry"/>
                </mxCell>
                <mxCell id="18" value="操作投喂情况记录" style="ellipse;whiteSpace=wrap;html=1;" parent="2" vertex="1">
                    <mxGeometry x="430" y="150" width="130" height="30" as="geometry"/>
                </mxCell>
                <mxCell id="19" value="操作受精情况记录" style="ellipse;whiteSpace=wrap;html=1;" parent="2" vertex="1">
                    <mxGeometry x="430" y="190" width="130" height="30" as="geometry"/>
                </mxCell>
                <mxCell id="38" style="edgeStyle=none;html=1;entryX=0;entryY=0.5;entryDx=0;entryDy=0;fontSize=11;" parent="2" source="33" target="35" edge="1">
                    <mxGeometry relative="1" as="geometry"/>
                </mxCell>
                <mxCell id="42" value="include" style="edgeLabel;html=1;align=center;verticalAlign=middle;resizable=0;points=[];fontSize=11;" parent="38" vertex="1" connectable="0">
                    <mxGeometry x="0.0755" y="-1" relative="1" as="geometry">
                        <mxPoint as="offset"/>
                    </mxGeometry>
                </mxCell>
                <mxCell id="39" style="edgeStyle=none;html=1;entryX=0;entryY=0.5;entryDx=0;entryDy=0;fontSize=11;" parent="2" source="33" target="36" edge="1">
                    <mxGeometry relative="1" as="geometry"/>
                </mxCell>
                <mxCell id="43" value="include" style="edgeLabel;html=1;align=center;verticalAlign=middle;resizable=0;points=[];fontSize=11;" parent="39" vertex="1" connectable="0">
                    <mxGeometry x="0.2395" y="1" relative="1" as="geometry">
                        <mxPoint as="offset"/>
                    </mxGeometry>
                </mxCell>
                <mxCell id="40" style="edgeStyle=none;html=1;entryX=0;entryY=0.5;entryDx=0;entryDy=0;fontSize=11;" parent="2" source="33" target="37" edge="1">
                    <mxGeometry relative="1" as="geometry"/>
                </mxCell>
                <mxCell id="44" value="include" style="edgeLabel;html=1;align=center;verticalAlign=middle;resizable=0;points=[];fontSize=11;" parent="40" vertex="1" connectable="0">
                    <mxGeometry x="0.1372" y="-1" relative="1" as="geometry">
                        <mxPoint as="offset"/>
                    </mxGeometry>
                </mxCell>
                <mxCell id="33" value="运输记录管理" style="ellipse;whiteSpace=wrap;html=1;" parent="2" vertex="1">
                    <mxGeometry x="80" y="290" width="110" height="30" as="geometry"/>
                </mxCell>
                <mxCell id="35" value="操作运输情况记录" style="ellipse;whiteSpace=wrap;html=1;" parent="2" vertex="1">
                    <mxGeometry x="430" y="260" width="110" height="30" as="geometry"/>
                </mxCell>
                <mxCell id="36" value="操作进货情况记录" style="ellipse;whiteSpace=wrap;html=1;" parent="2" vertex="1">
                    <mxGeometry x="430" y="300" width="110" height="30" as="geometry"/>
                </mxCell>
                <mxCell id="37" value="操作出苗情况记录" style="ellipse;whiteSpace=wrap;html=1;" parent="2" vertex="1">
                    <mxGeometry x="430" y="340" width="110" height="30" as="geometry"/>
                </mxCell>
                <mxCell id="55" style="edgeStyle=none;html=1;entryX=0;entryY=0.5;entryDx=0;entryDy=0;fontSize=11;" parent="2" source="45" target="52" edge="1">
                    <mxGeometry relative="1" as="geometry"/>
                </mxCell>
                <mxCell id="58" value="include" style="edgeLabel;html=1;align=center;verticalAlign=middle;resizable=0;points=[];fontSize=11;" parent="55" vertex="1" connectable="0">
                    <mxGeometry x="0.1086" relative="1" as="geometry">
                        <mxPoint as="offset"/>
                    </mxGeometry>
                </mxCell>
                <mxCell id="56" style="edgeStyle=none;html=1;entryX=0;entryY=0.5;entryDx=0;entryDy=0;fontSize=11;" parent="2" source="45" target="53" edge="1">
                    <mxGeometry relative="1" as="geometry"/>
                </mxCell>
                <mxCell id="59" value="include" style="edgeLabel;html=1;align=center;verticalAlign=middle;resizable=0;points=[];fontSize=11;" parent="56" vertex="1" connectable="0">
                    <mxGeometry x="0.218" y="-1" relative="1" as="geometry">
                        <mxPoint as="offset"/>
                    </mxGeometry>
                </mxCell>
                <mxCell id="57" style="edgeStyle=none;html=1;entryX=0;entryY=0.5;entryDx=0;entryDy=0;fontSize=11;" parent="2" source="45" target="54" edge="1">
                    <mxGeometry relative="1" as="geometry"/>
                </mxCell>
                <mxCell id="60" value="include" style="edgeLabel;html=1;align=center;verticalAlign=middle;resizable=0;points=[];fontSize=11;" parent="57" vertex="1" connectable="0">
                    <mxGeometry x="0.1824" y="3" relative="1" as="geometry">
                        <mxPoint as="offset"/>
                    </mxGeometry>
                </mxCell>
                <mxCell id="45" value="字段维护" style="ellipse;whiteSpace=wrap;html=1;" parent="2" vertex="1">
                    <mxGeometry x="80" y="441" width="110" height="30" as="geometry"/>
                </mxCell>
                <mxCell id="52" value="饲料信息维护" style="ellipse;whiteSpace=wrap;html=1;" parent="2" vertex="1">
                    <mxGeometry x="430" y="390" width="110" height="30" as="geometry"/>
                </mxCell>
                <mxCell id="53" value="药物信息维护维护" style="ellipse;whiteSpace=wrap;html=1;" parent="2" vertex="1">
                    <mxGeometry x="430" y="431" width="110" height="30" as="geometry"/>
                </mxCell>
                <mxCell id="54" value="批次信息维护维护" style="ellipse;whiteSpace=wrap;html=1;" parent="2" vertex="1">
                    <mxGeometry x="430" y="471" width="110" height="30" as="geometry"/>
                </mxCell>
                <mxCell id="67" style="edgeStyle=none;html=1;entryX=0;entryY=0.5;entryDx=0;entryDy=0;fontSize=11;" parent="2" source="61" target="62" edge="1">
                    <mxGeometry relative="1" as="geometry"/>
                </mxCell>
                <mxCell id="69" value="include" style="edgeLabel;html=1;align=center;verticalAlign=middle;resizable=0;points=[];fontSize=11;" parent="67" vertex="1" connectable="0">
                    <mxGeometry x="0.1496" y="5" relative="1" as="geometry">
                        <mxPoint as="offset"/>
                    </mxGeometry>
                </mxCell>
                <mxCell id="68" style="edgeStyle=none;html=1;entryX=0;entryY=0.5;entryDx=0;entryDy=0;fontSize=11;" parent="2" source="61" target="64" edge="1">
                    <mxGeometry relative="1" as="geometry"/>
                </mxCell>
                <mxCell id="70" value="include" style="edgeLabel;html=1;align=center;verticalAlign=middle;resizable=0;points=[];fontSize=11;" parent="68" vertex="1" connectable="0">
                    <mxGeometry x="0.1734" y="2" relative="1" as="geometry">
                        <mxPoint as="offset"/>
                    </mxGeometry>
                </mxCell>
                <mxCell id="61" value="首页管理" style="ellipse;whiteSpace=wrap;html=1;" parent="2" vertex="1">
                    <mxGeometry x="80" y="551" width="110" height="30" as="geometry"/>
                </mxCell>
                <mxCell id="62" value="完成代办工作" style="ellipse;whiteSpace=wrap;html=1;" parent="2" vertex="1">
                    <mxGeometry x="430" y="521" width="110" height="30" as="geometry"/>
                </mxCell>
                <mxCell id="64" value="查看代办工作" style="ellipse;whiteSpace=wrap;html=1;" parent="2" vertex="1">
                    <mxGeometry x="430" y="560" width="110" height="30" as="geometry"/>
                </mxCell>
                <mxCell id="77" style="edgeStyle=none;html=1;entryX=0;entryY=0.5;entryDx=0;entryDy=0;fontSize=11;" parent="2" source="71" target="73" edge="1">
                    <mxGeometry relative="1" as="geometry"/>
                </mxCell>
                <mxCell id="81" value="include" style="edgeLabel;html=1;align=center;verticalAlign=middle;resizable=0;points=[];fontSize=11;" parent="77" vertex="1" connectable="0">
                    <mxGeometry x="0.0771" y="3" relative="1" as="geometry">
                        <mxPoint as="offset"/>
                    </mxGeometry>
                </mxCell>
                <mxCell id="78" style="edgeStyle=none;html=1;entryX=0;entryY=0.5;entryDx=0;entryDy=0;fontSize=11;" parent="2" source="71" target="74" edge="1">
                    <mxGeometry relative="1" as="geometry"/>
                </mxCell>
                <mxCell id="82" value="include" style="edgeLabel;html=1;align=center;verticalAlign=middle;resizable=0;points=[];fontSize=11;" parent="78" vertex="1" connectable="0">
                    <mxGeometry x="0.1139" y="4" relative="1" as="geometry">
                        <mxPoint as="offset"/>
                    </mxGeometry>
                </mxCell>
                <mxCell id="79" style="edgeStyle=none;html=1;entryX=0;entryY=0.5;entryDx=0;entryDy=0;fontSize=11;" parent="2" source="71" target="75" edge="1">
                    <mxGeometry relative="1" as="geometry"/>
                </mxCell>
                <mxCell id="83" value="include" style="edgeLabel;html=1;align=center;verticalAlign=middle;resizable=0;points=[];fontSize=11;" parent="79" vertex="1" connectable="0">
                    <mxGeometry x="0.1685" y="2" relative="1" as="geometry">
                        <mxPoint as="offset"/>
                    </mxGeometry>
                </mxCell>
                <mxCell id="80" style="edgeStyle=none;html=1;entryX=0;entryY=0.5;entryDx=0;entryDy=0;fontSize=11;" parent="2" source="71" target="76" edge="1">
                    <mxGeometry relative="1" as="geometry"/>
                </mxCell>
                <mxCell id="84" value="include" style="edgeLabel;html=1;align=center;verticalAlign=middle;resizable=0;points=[];fontSize=11;" parent="80" vertex="1" connectable="0">
                    <mxGeometry x="0.1907" y="1" relative="1" as="geometry">
                        <mxPoint y="1" as="offset"/>
                    </mxGeometry>
                </mxCell>
                <mxCell id="71" value="个人中心管理" style="ellipse;whiteSpace=wrap;html=1;" parent="2" vertex="1">
                    <mxGeometry x="80" y="650" width="110" height="30" as="geometry"/>
                </mxCell>
                <mxCell id="73" value="查看个人基本信息" style="ellipse;whiteSpace=wrap;html=1;" parent="2" vertex="1">
                    <mxGeometry x="430" y="600" width="110" height="30" as="geometry"/>
                </mxCell>
                <mxCell id="74" value="编辑个人基本信息" style="ellipse;whiteSpace=wrap;html=1;" parent="2" vertex="1">
                    <mxGeometry x="430" y="640" width="110" height="30" as="geometry"/>
                </mxCell>
                <mxCell id="75" value="修改密码" style="ellipse;whiteSpace=wrap;html=1;" parent="2" vertex="1">
                    <mxGeometry x="430" y="670" width="110" height="30" as="geometry"/>
                </mxCell>
                <mxCell id="76" value="查看消息" style="ellipse;whiteSpace=wrap;html=1;" parent="2" vertex="1">
                    <mxGeometry x="430" y="700" width="110" height="30" as="geometry"/>
                </mxCell>
                <mxCell id="88" style="edgeStyle=none;html=1;entryX=0;entryY=0.5;entryDx=0;entryDy=0;fontSize=11;" parent="2" source="85" target="86" edge="1">
                    <mxGeometry relative="1" as="geometry"/>
                </mxCell>
                <mxCell id="90" value="include" style="edgeLabel;html=1;align=center;verticalAlign=middle;resizable=0;points=[];fontSize=11;" parent="88" vertex="1" connectable="0">
                    <mxGeometry x="0.126" y="2" relative="1" as="geometry">
                        <mxPoint as="offset"/>
                    </mxGeometry>
                </mxCell>
                <mxCell id="89" style="edgeStyle=none;html=1;entryX=0;entryY=0.5;entryDx=0;entryDy=0;fontSize=11;" parent="2" source="85" target="87" edge="1">
                    <mxGeometry relative="1" as="geometry"/>
                </mxCell>
                <mxCell id="91" value="include" style="edgeLabel;html=1;align=center;verticalAlign=middle;resizable=0;points=[];fontSize=11;" parent="89" vertex="1" connectable="0">
                    <mxGeometry x="0.1902" y="1" relative="1" as="geometry">
                        <mxPoint as="offset"/>
                    </mxGeometry>
                </mxCell>
                <mxCell id="85" value="工作分配管理" style="ellipse;whiteSpace=wrap;html=1;" parent="2" vertex="1">
                    <mxGeometry x="80" y="780" width="110" height="30" as="geometry"/>
                </mxCell>
                <mxCell id="86" value="查询空闲员工" style="ellipse;whiteSpace=wrap;html=1;" parent="2" vertex="1">
                    <mxGeometry x="430" y="740" width="110" height="30" as="geometry"/>
                </mxCell>
                <mxCell id="87" value="分配工作" style="ellipse;whiteSpace=wrap;html=1;" parent="2" vertex="1">
                    <mxGeometry x="430" y="780" width="110" height="30" as="geometry"/>
                </mxCell>
                <mxCell id="94" style="edgeStyle=none;html=1;entryX=0;entryY=0.5;entryDx=0;entryDy=0;fontSize=11;" parent="2" source="92" target="93" edge="1">
                    <mxGeometry relative="1" as="geometry"/>
                </mxCell>
                <mxCell id="95" value="include" style="edgeLabel;html=1;align=center;verticalAlign=middle;resizable=0;points=[];fontSize=11;" parent="94" vertex="1" connectable="0">
                    <mxGeometry x="0.1366" y="-3" relative="1" as="geometry">
                        <mxPoint as="offset"/>
                    </mxGeometry>
                </mxCell>
                <mxCell id="100" style="edgeStyle=none;html=1;entryX=0;entryY=0.5;entryDx=0;entryDy=0;fontSize=11;" parent="2" source="92" target="96" edge="1">
                    <mxGeometry relative="1" as="geometry"/>
                </mxCell>
                <mxCell id="104" value="include" style="edgeLabel;html=1;align=center;verticalAlign=middle;resizable=0;points=[];fontSize=11;" parent="100" vertex="1" connectable="0">
                    <mxGeometry x="0.1647" y="-2" relative="1" as="geometry">
                        <mxPoint as="offset"/>
                    </mxGeometry>
                </mxCell>
                <mxCell id="101" style="edgeStyle=none;html=1;entryX=0;entryY=0.5;entryDx=0;entryDy=0;fontSize=11;" parent="2" source="92" target="97" edge="1">
                    <mxGeometry relative="1" as="geometry"/>
                </mxCell>
                <mxCell id="107" value="include" style="edgeLabel;html=1;align=center;verticalAlign=middle;resizable=0;points=[];fontSize=11;" parent="101" vertex="1" connectable="0">
                    <mxGeometry x="0.336" y="-2" relative="1" as="geometry">
                        <mxPoint as="offset"/>
                    </mxGeometry>
                </mxCell>
                <mxCell id="102" style="edgeStyle=none;html=1;entryX=0;entryY=0.5;entryDx=0;entryDy=0;fontSize=11;" parent="2" source="92" target="98" edge="1">
                    <mxGeometry relative="1" as="geometry"/>
                </mxCell>
                <mxCell id="108" value="include" style="edgeLabel;html=1;align=center;verticalAlign=middle;resizable=0;points=[];fontSize=11;" parent="102" vertex="1" connectable="0">
                    <mxGeometry x="0.1297" y="2" relative="1" as="geometry">
                        <mxPoint as="offset"/>
                    </mxGeometry>
                </mxCell>
                <mxCell id="103" style="edgeStyle=none;html=1;entryX=0;entryY=0.5;entryDx=0;entryDy=0;fontSize=11;" parent="2" source="92" target="99" edge="1">
                    <mxGeometry relative="1" as="geometry"/>
                </mxCell>
                <mxCell id="109" value="include" style="edgeLabel;html=1;align=center;verticalAlign=middle;resizable=0;points=[];fontSize=11;" parent="103" vertex="1" connectable="0">
                    <mxGeometry x="0.093" y="4" relative="1" as="geometry">
                        <mxPoint as="offset"/>
                    </mxGeometry>
                </mxCell>
                <mxCell id="92" value="系统管理" style="ellipse;whiteSpace=wrap;html=1;" parent="2" vertex="1">
                    <mxGeometry x="80" y="870" width="110" height="30" as="geometry"/>
                </mxCell>
                <mxCell id="93" value="打印系统表单数据" style="ellipse;whiteSpace=wrap;html=1;" parent="2" vertex="1">
                    <mxGeometry x="430" y="820" width="110" height="30" as="geometry"/>
                </mxCell>
                <mxCell id="96" value="数据备份与恢复" style="ellipse;whiteSpace=wrap;html=1;" parent="2" vertex="1">
                    <mxGeometry x="430" y="860" width="110" height="30" as="geometry"/>
                </mxCell>
                <mxCell id="97" value="操作用户账户" style="ellipse;whiteSpace=wrap;html=1;" parent="2" vertex="1">
                    <mxGeometry x="430" y="890" width="110" height="30" as="geometry"/>
                </mxCell>
                <mxCell id="98" value="管理系统角色" style="ellipse;whiteSpace=wrap;html=1;" parent="2" vertex="1">
                    <mxGeometry x="430" y="920" width="110" height="30" as="geometry"/>
                </mxCell>
                <mxCell id="99" value="管理系统权限" style="ellipse;whiteSpace=wrap;html=1;" parent="2" vertex="1">
                    <mxGeometry x="430" y="950" width="110" height="30" as="geometry"/>
                </mxCell>
                <mxCell id="111" style="edgeStyle=none;html=1;entryX=0;entryY=0.5;entryDx=0;entryDy=0;fontSize=11;" parent="1" source="110" target="3" edge="1">
                    <mxGeometry relative="1" as="geometry"/>
                </mxCell>
                <mxCell id="112" style="edgeStyle=none;html=1;entryX=0;entryY=0.5;entryDx=0;entryDy=0;fontSize=11;" parent="1" source="110" target="4" edge="1">
                    <mxGeometry relative="1" as="geometry"/>
                </mxCell>
                <mxCell id="113" style="edgeStyle=none;html=1;entryX=0;entryY=0.5;entryDx=0;entryDy=0;fontSize=11;" parent="1" source="110" target="33" edge="1">
                    <mxGeometry relative="1" as="geometry"/>
                </mxCell>
                <mxCell id="114" style="edgeStyle=none;html=1;entryX=0;entryY=0.5;entryDx=0;entryDy=0;fontSize=11;" parent="1" source="110" target="45" edge="1">
                    <mxGeometry relative="1" as="geometry"/>
                </mxCell>
                <mxCell id="115" style="edgeStyle=none;html=1;entryX=0;entryY=0.5;entryDx=0;entryDy=0;fontSize=11;" parent="1" source="110" target="61" edge="1">
                    <mxGeometry relative="1" as="geometry"/>
                </mxCell>
                <mxCell id="116" style="edgeStyle=none;html=1;entryX=0;entryY=0.5;entryDx=0;entryDy=0;fontSize=11;" parent="1" source="110" target="71" edge="1">
                    <mxGeometry relative="1" as="geometry"/>
                </mxCell>
                <mxCell id="117" style="edgeStyle=none;html=1;entryX=0;entryY=0.5;entryDx=0;entryDy=0;fontSize=11;" parent="1" source="110" target="85" edge="1">
                    <mxGeometry relative="1" as="geometry"/>
                </mxCell>
                <mxCell id="118" style="edgeStyle=none;html=1;entryX=0;entryY=0.5;entryDx=0;entryDy=0;fontSize=11;" parent="1" source="110" target="92" edge="1">
                    <mxGeometry relative="1" as="geometry"/>
                </mxCell>
                <mxCell id="110" value="管理员" style="shape=umlActor;verticalLabelPosition=bottom;verticalAlign=top;html=1;outlineConnect=0;fontSize=11;" parent="1" vertex="1">
                    <mxGeometry x="80" y="540" width="30" height="60" as="geometry"/>
                </mxCell>
                <mxCell id="120" value="&lt;font style=&quot;font-size: 14px;&quot;&gt;管理员用例图&lt;/font&gt;" style="rounded=0;whiteSpace=wrap;html=1;fontSize=11;" parent="1" vertex="1">
                    <mxGeometry x="140" y="30" width="110" height="30" as="geometry"/>
                </mxCell>
            </root>
        </mxGraphModel>
    </diagram>
</mxfile>